With: Sam Louwyck, Titus De Voogdt and Steffi Peeters

Nederlands gesproken,
Sam, een wat troosteloze veertiger, werkt als bewakingsagent in een winkelcentrum. Zijn leven wordt door elkaar geschud wanneer er op een dag een jongen met een rugzak zichzelf in het winkelcentrum tot ontploffing brengt.

Dutch spoken,
A bomb explodes in a shopping mall. Sam the security agent tries to save the victims, but at the end he runs off. Later he encounters all the people he saved. They all think that somehow he is responsible for what happened. 

------------------ Dutch Friends ------------------
You can find my Friends at: http://www.Film-Test.nl 
------ They got my dutchs subs ---- and more ------

General:

Complete name                    : 22nd of MAY\22 Mei.avi
Format                           : AVI
Format/Info                      : Audio Video Interleave
File size                        : 924 MiB
Duration                         : 1h 28mn
Overall bit rate                 : 1 461 Kbps

Video:

Format                           : MPEG-4 Visual
Format profile                   : Simple@L3
Format settings, BVOP            : No
Format settings, QPel            : No
Format settings, GMC             : No warppoints
Format settings, Matrix          : Default (H.263)
Codec ID                         : XVID
Codec ID/Hint                    : XviD
Duration                         : 1h 28mn
Bit rate                         : 1 008 Kbps
Width                            : 652 pixels
Height                           : 352 pixels
Display aspect ratio             : 1.852
Frame rate                       : 25.000 fps
Color space                      : YUV
Chroma subsampling               : 4:2:0
Bit depth                        : 8 bits
Scan type                        : Progressive
Bits/(Pixel*Frame)               : 0.176
Stream size                      : 638 MiB (69%)
Writing library                  : XviD 1.1.2 (UTC 2006-11-01)

Audio:

Format                           : AC-3
Format/Info                      : Audio Coding 3
Mode extension                   : CM (complete main)
Codec ID                         : 2000
Duration                         : 1h 27mn
Bit rate mode                    : Constant
Bit rate                         : 448 Kbps
Channel(s)                       : 6 channels
Channel positions                : Front: L C R, Side: L R, LFE
Sampling rate                    : 48.0 KHz
Bit depth                        : 16 bits
Stream size                      : 280 MiB (30%)
Alignment                        : Aligned on interleaves
Interleave, duration             : 32 ms (0.81 video frame)
Interleave, preload duration     : 1248 ms


